<?xml version="1.0" encoding="utf-8"?>
<!-- Generator: Adobe Illustrator 23.0.3, SVG Export Plug-In . SVG Version: 6.00 Build 0)  -->
<svg version="1.0" id="Layer_1" xmlns="http://www.w3.org/2000/svg" xmlns:xlink="http://www.w3.org/1999/xlink" x="0px" y="0px"
	 viewBox="0 0 180 32" style="enable-background:new 0 0 180 32;" xml:space="preserve">
<style type="text/css">
	.st0{fill:#3E3935;}
	.st1{fill:#0076A9;}
</style>
<path class="st0" d="M50,31.75h-2.5c-2.5,0-5.5-1.1-5.5-6.2v-2.1h5.3v2.3c0,0.8,0.4,1.2,1.3,1.2h0.7c0.6,0,1-0.2,1-1.2v-5.2
	c0-0.6-0.2-0.7-0.2-0.7c-0.2-0.1-0.4-0.4-1-0.7l-3.9-2.2c-0.9-0.5-1.5-0.8-2-1.2c-0.5-0.4-0.8-0.9-1-1.5s-0.2-1.3-0.2-2.1v-6.3
	c0-3.8,1.9-5.8,5.5-5.8H50c3.6,0,5.5,2,5.5,5.8v3.5h-5.3v-3.3c0-0.9-0.3-1.2-1.2-1.2h-0.6c-0.7,0-1.2,0.2-1.2,1.2v5.1
	c0,0.6,0.2,0.7,0.2,0.7c0.2,0.1,0.4,0.4,1,0.7l3.9,2.1c0.9,0.5,1.5,0.9,1.9,1.2c0.4,0.3,0.7,0.7,1,1.2s0.4,1.3,0.4,2.5v6.4
	C55.5,29.75,53.6,31.75,50,31.75"/>
<path class="st0" d="M66,31.8h-5.3V0H66V31.8z"/>
<path class="st0" d="M90.5,31.8h-5.3l0.3-14.4l-1.9,8.8h-4.1l-1.9-8.8L78,31.8h-5.3V0h5.6l3.3,15.7L85,0h5.6v31.8H90.5L90.5,31.8z"
	/>
<path class="st0" d="M103.8,31.75h-2.5c-2.5,0-5.5-1.1-5.5-6.2v-2.1h5.3v2.3c0,0.8,0.4,1.2,1.3,1.2h0.7c0.6,0,1-0.2,1-1.2v-5.2
	c0-0.6-0.2-0.7-0.2-0.7c-0.2-0.1-0.4-0.4-1-0.7l-3.8-2.2c-0.9-0.5-1.5-0.8-2-1.2c-0.5-0.4-0.8-0.9-1-1.5s-0.3-1.3-0.3-2.1v-6.3
	c0-3.8,1.9-5.8,5.5-5.8h2.5c3.6,0,5.5,2,5.5,5.8v3.5H104v-3.3c0-0.9-0.3-1.2-1.2-1.2h-0.6c-0.7,0-1.2,0.2-1.2,1.2v5.1
	c0,0.6,0.2,0.7,0.2,0.7c0.2,0.1,0.4,0.3,1,0.7l3.8,2.1c0.9,0.5,1.5,0.9,1.9,1.2c0.4,0.3,0.7,0.7,1,1.2s0.4,1.3,0.4,2.5v6.4
	C109.4,29.75,107.5,31.75,103.8,31.75"/>
<path class="st0" d="M122.6,31.8H120c-3.6,0-5.5-2-5.5-5.8V5.8c0-3.8,1.9-5.8,5.5-5.8h2.6c3.6,0,5.5,2,5.5,5.8v4h-5.3V6.1
	c0-0.8-0.4-1.2-1.3-1.2h-0.8c-0.6,0-1,0.2-1,1.2v19.6c0,1,0.4,1.2,1,1.2h1c0.6,0,1-0.2,1-1.2v-2.3h5.3V26
	C128.1,29.8,126.2,31.8,122.6,31.8"/>
<path class="st0" d="M147,31.75h-5.3v-11.2h-3.5v11.2H133V5.85c0-3.8,1.9-5.8,5.5-5.8h3.1c3.6,0,5.5,2,5.5,5.8v25.9H147z
	 M138.2,15.65h3.5v-9.6c0-0.8-0.3-1.2-1.2-1.2h-1.1c-0.8,0-1.2,0.3-1.2,1.2V15.65L138.2,15.65z"/>
<path class="st0" d="M164.3,31.8h-10.9V0h5.3v26.9h5.6L164.3,31.8L164.3,31.8z"/>
<path class="st0" d="M179.9,31.8h-11.3V0h11.3v4.9h-6V13h5.4v4.9h-5.4v9h6V31.8z"/>
<path class="st1" d="M15.4,14C10,18.9,2.5,21.4,0,22.1v3.6c4.8-0.9,11.7-2.7,17.7-6.4c3.5-2.2,10-6.8,14.1-12.8l0,0V0h-6.5
	C24.6,1.5,21.5,8.4,15.4,14"/>
<path class="st0" d="M18.5,20.8C12.2,24.6,5,26.5,0,27.5V31h0.1c1.8-0.2,11.6-1.3,19.3-5c6-2.9,11.4-7.7,12.4-8.7v-8
	C27.6,14.7,21.8,18.8,18.5,20.8"/>
<path class="st0" d="M14.3,12.8C19.5,8,22.5,2.2,23.6,0H5.3C2.4,0,0,2.4,0,5.3v15.1C2.7,19.6,9.6,17.2,14.3,12.8"/>
<path class="st0" d="M20,27.4C15.1,29.7,9.6,31,5.6,31.8h14.2h6.7c3,0,5.3-2.4,5.3-5.3v-7C29.7,21.3,25.1,25,20,27.4"/>
</svg>
